<svg xmlns="http://www.w3.org/2000/svg" viewBox="0 0 96 96" fill="none">
  <defs><linearGradient id="paper" x2="0" y2="1"><stop stop-color="#faf5e9"/><stop offset="1" stop-color="#e8e2d3"/></linearGradient><linearGradient id="cover" x2="1" y2="1"><stop stop-color="#418f82"/><stop offset="1" stop-color="#205c55"/></linearGradient></defs>
  <rect width="96" height="96" rx="23" fill="url(#cover)"/>
  <path d="M22 22h43a8 8 0 0 1 8 8v45H30a8 8 0 0 1-8-8z" fill="#133f39" opacity=".35"/>
  <path d="M22 18h43a7 7 0 0 1 7 7v46H29a7 7 0 0 1-7-7z" fill="url(#paper)"/>
  <path d="M29 18v53M39 50h21M39 57h15" stroke="#367b70" stroke-opacity=".4" stroke-width="2"/>
  <path d="m40 41 7-16h3l7 16m-14-6h11" stroke="#347c72" stroke-width="2.7" stroke-linecap="round" stroke-linejoin="round"/>
  <path d="m63 48 7 5-14 21-10 6 2-12z" fill="#d8ab59" stroke="#f6deaa" stroke-width="1.3"/><path d="m46 80 4-9 5 4z" fill="#294e46"/>
</svg>
