<svg xmlns="http://www.w3.org/2000/svg" viewBox="0 0 360 300"><rect width="360" height="300" rx="26" fill="#dceef5"/><circle cx="252" cy="66" r="35" fill="#fff8df"/><path d="M0 178 68 86l47 51 56-66 71 80 63-47 55 62v134H0Z" fill="#b0cbd7"/><path d="m0 213 106-54 121 37 133-53v157H0Z" fill="#8fadb9"/><path d="m39 267 143-107 139 107-143 29Z" fill="#d5e5df"/><path d="M82 198V92h38v92m120 0V92h38v106" fill="#f6f3e4"/><path d="M76 92h50L101 53Zm158 0h50l-25-39Z" fill="#426a7d"/><path d="M114 114h132v18H114" fill="#f6f3e4"/><path d="M92 99h17v57H92m158-57h17v57h-17" fill="#65a89e"/><path d="m170 215 11-58 11 58-11-8Z" fill="#e9fafc" stroke="#598394" stroke-width="3"/><path d="m157 212 49 0m-24 0v24" stroke="#d9ad58" stroke-width="6"/><circle cx="181" cy="259" r="24" fill="none" stroke="#f9f6df" stroke-width="3"/></svg>
